<svg xmlns="http://www.w3.org/2000/svg" viewBox="0 0 1040 470">
<rect width="1040" height="470" fill="#ffffff"/>
<path d="M 972.00 235.00 L 971.98 230.27 L 971.90 225.54 L 971.78 220.81 L 971.60 216.09 L 971.38 211.38 L 971.11 206.67 L 970.79 201.99 L 970.41 197.31 L 969.99 192.65 L 969.52 188.01 L 969.00 183.39 L 968.44 178.80 L 967.82 174.22 L 967.15 169.68 L 966.44 165.16 L 965.67 160.68 L 964.86 156.22 L 963.99 151.80 L 963.08 147.42 L 962.12 143.08 L 961.11 138.77 L 960.06 134.51 L 958.95 130.30 L 957.80 126.12 L 956.60 122.00 L 955.35 117.93 L 954.05 113.90 L 952.71 109.93 L 951.32 106.02 L 949.88 102.16 L 948.39 98.36 L 946.86 94.62 L 945.28 90.94 L 943.65 87.33 L 941.98 83.78 L 940.26 80.29 L 938.49 76.88 L 936.68 73.53 L 934.83 70.25 L 932.92 67.05 L 930.97 63.92 L 928.98 60.86 L 926.94 57.89 L 924.86 54.98 L 922.73 52.16 L 920.56 49.42 L 918.35 46.76 L 916.09 44.18 L 913.79 41.69 L 911.44 39.28 L 909.06 36.95 L 906.62 34.72 L 904.15 32.57 L 901.64 30.51 L 899.08 28.54 L 896.48 26.66 L 893.84 24.87 L 891.16 23.17 L 888.44 21.57 L 885.68 20.06 L 882.87 18.65 L 880.03 17.33 L 877.15 16.10 L 874.23 14.97 L 871.27 13.94 L 868.27 13.00 L 865.24 12.16 L 862.16 11.42 L 859.05 10.78 L 855.90 10.24 L 852.72 9.79 L 849.49 9.45 L 846.24 9.20 L 842.94 9.05 L 839.61 9.00 L 836.25 9.05 L 832.85 9.20 L 829.42 9.45 L 825.95 9.79 L 822.45 10.24 L 818.91 10.78 L 815.35 11.42 L 811.75 12.16 L 808.12 13.00 L 804.45 13.94 L 800.76 14.97 L 797.03 16.10 L 793.28 17.33 L 789.49 18.65 L 785.68 20.06 L 781.84 21.57 L 777.96 23.17 L 774.06 24.87 L 770.13 26.66 L 766.18 28.54 L 762.19 30.51 L 758.18 32.57 L 754.15 34.72 L 750.09 36.95 L 746.00 39.28 L 741.89 41.69 L 737.75 44.18 L 733.59 46.76 L 729.41 49.42 L 725.20 52.16 L 720.98 54.98 L 716.72 57.89 L 712.45 60.86 L 708.16 63.92 L 703.84 67.05 L 699.51 70.25 L 695.16 73.53 L 690.78 76.88 L 686.39 80.29 L 681.98 83.78 L 677.55 87.33 L 673.11 90.94 L 668.65 94.62 L 664.17 98.36 L 659.68 102.16 L 655.17 106.02 L 650.64 109.93 L 646.10 113.90 L 641.55 117.93 L 636.99 122.00 L 632.41 126.12 L 627.82 130.30 L 623.21 134.51 L 618.60 138.77 L 613.98 143.08 L 609.34 147.42 L 604.70 151.80 L 600.04 156.22 L 595.38 160.68 L 590.71 165.16 L 586.03 169.68 L 581.34 174.22 L 576.65 178.80 L 571.95 183.39 L 567.25 188.01 L 562.54 192.65 L 557.82 197.31 L 553.10 201.99 L 548.38 206.67 L 543.66 211.38 L 538.93 216.09 L 534.20 220.81 L 529.47 225.54 L 524.73 230.27 L 520.00 235.00 L 515.27 239.73 L 510.53 244.46 L 505.80 249.19 L 501.07 253.91 L 496.34 258.62 L 491.62 263.33 L 486.90 268.01 L 482.18 272.69 L 477.46 277.35 L 472.75 281.99 L 468.05 286.61 L 463.35 291.20 L 458.66 295.78 L 453.97 300.32 L 449.29 304.84 L 444.62 309.32 L 439.96 313.78 L 435.30 318.20 L 430.66 322.58 L 426.02 326.92 L 421.40 331.23 L 416.79 335.49 L 412.18 339.70 L 407.59 343.88 L 403.01 348.00 L 398.45 352.07 L 393.90 356.10 L 389.36 360.07 L 384.83 363.98 L 380.32 367.84 L 375.83 371.64 L 371.35 375.38 L 366.89 379.06 L 362.45 382.67 L 358.02 386.22 L 353.61 389.71 L 349.22 393.12 L 344.84 396.47 L 340.49 399.75 L 336.16 402.95 L 331.84 406.08 L 327.55 409.14 L 323.28 412.11 L 319.02 415.02 L 314.80 417.84 L 310.59 420.58 L 306.41 423.24 L 302.25 425.82 L 298.11 428.31 L 294.00 430.72 L 289.91 433.05 L 285.85 435.28 L 281.82 437.43 L 277.81 439.49 L 273.82 441.46 L 269.87 443.34 L 265.94 445.13 L 262.04 446.83 L 258.16 448.43 L 254.32 449.94 L 250.51 451.35 L 246.72 452.67 L 242.97 453.90 L 239.24 455.03 L 235.55 456.06 L 231.88 457.00 L 228.25 457.84 L 224.65 458.58 L 221.09 459.22 L 217.55 459.76 L 214.05 460.21 L 210.58 460.55 L 207.15 460.80 L 203.75 460.95 L 200.39 461.00 L 197.06 460.95 L 193.76 460.80 L 190.51 460.55 L 187.28 460.21 L 184.10 459.76 L 180.95 459.22 L 177.84 458.58 L 174.76 457.84 L 171.73 457.00 L 168.73 456.06 L 165.77 455.03 L 162.85 453.90 L 159.97 452.67 L 157.13 451.35 L 154.32 449.94 L 151.56 448.43 L 148.84 446.83 L 146.16 445.13 L 143.52 443.34 L 140.92 441.46 L 138.36 439.49 L 135.85 437.43 L 133.38 435.28 L 130.94 433.05 L 128.56 430.72 L 126.21 428.31 L 123.91 425.82 L 121.65 423.24 L 119.44 420.58 L 117.27 417.84 L 115.14 415.02 L 113.06 412.11 L 111.02 409.14 L 109.03 406.08 L 107.08 402.95 L 105.17 399.75 L 103.32 396.47 L 101.51 393.12 L 99.74 389.71 L 98.02 386.22 L 96.35 382.67 L 94.72 379.06 L 93.14 375.38 L 91.61 371.64 L 90.12 367.84 L 88.68 363.98 L 87.29 360.07 L 85.95 356.10 L 84.65 352.07 L 83.40 348.00 L 82.20 343.88 L 81.05 339.70 L 79.94 335.49 L 78.89 331.23 L 77.88 326.92 L 76.92 322.58 L 76.01 318.20 L 75.14 313.78 L 74.33 309.32 L 73.56 304.84 L 72.85 300.32 L 72.18 295.78 L 71.56 291.20 L 71.00 286.61 L 70.48 281.99 L 70.01 277.35 L 69.59 272.69 L 69.21 268.01 L 68.89 263.33 L 68.62 258.62 L 68.40 253.91 L 68.22 249.19 L 68.10 244.46 L 68.02 239.73 L 68.00 235.00 L 68.02 230.27 L 68.10 225.54 L 68.22 220.81 L 68.40 216.09 L 68.62 211.38 L 68.89 206.67 L 69.21 201.99 L 69.59 197.31 L 70.01 192.65 L 70.48 188.01 L 71.00 183.39 L 71.56 178.80 L 72.18 174.22 L 72.85 169.68 L 73.56 165.16 L 74.33 160.68 L 75.14 156.22 L 76.01 151.80 L 76.92 147.42 L 77.88 143.08 L 78.89 138.77 L 79.94 134.51 L 81.05 130.30 L 82.20 126.12 L 83.40 122.00 L 84.65 117.93 L 85.95 113.90 L 87.29 109.93 L 88.68 106.02 L 90.12 102.16 L 91.61 98.36 L 93.14 94.62 L 94.72 90.94 L 96.35 87.33 L 98.02 83.78 L 99.74 80.29 L 101.51 76.88 L 103.32 73.53 L 105.17 70.25 L 107.08 67.05 L 109.03 63.92 L 111.02 60.86 L 113.06 57.89 L 115.14 54.98 L 117.27 52.16 L 119.44 49.42 L 121.65 46.76 L 123.91 44.18 L 126.21 41.69 L 128.56 39.28 L 130.94 36.95 L 133.38 34.72 L 135.85 32.57 L 138.36 30.51 L 140.92 28.54 L 143.52 26.66 L 146.16 24.87 L 148.84 23.17 L 151.56 21.57 L 154.32 20.06 L 157.13 18.65 L 159.97 17.33 L 162.85 16.10 L 165.77 14.97 L 168.73 13.94 L 171.73 13.00 L 174.76 12.16 L 177.84 11.42 L 180.95 10.78 L 184.10 10.24 L 187.28 9.79 L 190.51 9.45 L 193.76 9.20 L 197.06 9.05 L 200.39 9.00 L 203.75 9.05 L 207.15 9.20 L 210.58 9.45 L 214.05 9.79 L 217.55 10.24 L 221.09 10.78 L 224.65 11.42 L 228.25 12.16 L 231.88 13.00 L 235.55 13.94 L 239.24 14.97 L 242.97 16.10 L 246.72 17.33 L 250.51 18.65 L 254.32 20.06 L 258.16 21.57 L 262.04 23.17 L 265.94 24.87 L 269.87 26.66 L 273.82 28.54 L 277.81 30.51 L 281.82 32.57 L 285.85 34.72 L 289.91 36.95 L 294.00 39.28 L 298.11 41.69 L 302.25 44.18 L 306.41 46.76 L 310.59 49.42 L 314.80 52.16 L 319.02 54.98 L 323.28 57.89 L 327.55 60.86 L 331.84 63.92 L 336.16 67.05 L 340.49 70.25 L 344.84 73.53 L 349.22 76.88 L 353.61 80.29 L 358.02 83.78 L 362.45 87.33 L 366.89 90.94 L 371.35 94.62 L 375.83 98.36 L 380.32 102.16 L 384.83 106.02 L 389.36 109.93 L 393.90 113.90 L 398.45 117.93 L 403.01 122.00 L 407.59 126.12 L 412.18 130.30 L 416.79 134.51 L 421.40 138.77 L 426.02 143.08 L 430.66 147.42 L 435.30 151.80 L 439.96 156.22 L 444.62 160.68 L 449.29 165.16 L 453.97 169.68 L 458.66 174.22 L 463.35 178.80 L 468.05 183.39 L 472.75 188.01 L 477.46 192.65 L 482.18 197.31 L 486.90 201.99 L 491.62 206.67 L 496.34 211.38 L 501.07 216.09 L 505.80 220.81 L 510.53 225.54 L 515.27 230.27 L 520.00 235.00 L 524.73 239.73 L 529.47 244.46 L 534.20 249.19 L 538.93 253.91 L 543.66 258.62 L 548.38 263.33 L 553.10 268.01 L 557.82 272.69 L 562.54 277.35 L 567.25 281.99 L 571.95 286.61 L 576.65 291.20 L 581.34 295.78 L 586.03 300.32 L 590.71 304.84 L 595.38 309.32 L 600.04 313.78 L 604.70 318.20 L 609.34 322.58 L 613.98 326.92 L 618.60 331.23 L 623.21 335.49 L 627.82 339.70 L 632.41 343.88 L 636.99 348.00 L 641.55 352.07 L 646.10 356.10 L 650.64 360.07 L 655.17 363.98 L 659.68 367.84 L 664.17 371.64 L 668.65 375.38 L 673.11 379.06 L 677.55 382.67 L 681.98 386.22 L 686.39 389.71 L 690.78 393.12 L 695.16 396.47 L 699.51 399.75 L 703.84 402.95 L 708.16 406.08 L 712.45 409.14 L 716.72 412.11 L 720.98 415.02 L 725.20 417.84 L 729.41 420.58 L 733.59 423.24 L 737.75 425.82 L 741.89 428.31 L 746.00 430.72 L 750.09 433.05 L 754.15 435.28 L 758.18 437.43 L 762.19 439.49 L 766.18 441.46 L 770.13 443.34 L 774.06 445.13 L 777.96 446.83 L 781.84 448.43 L 785.68 449.94 L 789.49 451.35 L 793.28 452.67 L 797.03 453.90 L 800.76 455.03 L 804.45 456.06 L 808.12 457.00 L 811.75 457.84 L 815.35 458.58 L 818.91 459.22 L 822.45 459.76 L 825.95 460.21 L 829.42 460.55 L 832.85 460.80 L 836.25 460.95 L 839.61 461.00 L 842.94 460.95 L 846.24 460.80 L 849.49 460.55 L 852.72 460.21 L 855.90 459.76 L 859.05 459.22 L 862.16 458.58 L 865.24 457.84 L 868.27 457.00 L 871.27 456.06 L 874.23 455.03 L 877.15 453.90 L 880.03 452.67 L 882.87 451.35 L 885.68 449.94 L 888.44 448.43 L 891.16 446.83 L 893.84 445.13 L 896.48 443.34 L 899.08 441.46 L 901.64 439.49 L 904.15 437.43 L 906.62 435.28 L 909.06 433.05 L 911.44 430.72 L 913.79 428.31 L 916.09 425.82 L 918.35 423.24 L 920.56 420.58 L 922.73 417.84 L 924.86 415.02 L 926.94 412.11 L 928.98 409.14 L 930.97 406.08 L 932.92 402.95 L 934.83 399.75 L 936.68 396.47 L 938.49 393.12 L 940.26 389.71 L 941.98 386.22 L 943.65 382.67 L 945.28 379.06 L 946.86 375.38 L 948.39 371.64 L 949.88 367.84 L 951.32 363.98 L 952.71 360.07 L 954.05 356.10 L 955.35 352.07 L 956.60 348.00 L 957.80 343.88 L 958.95 339.70 L 960.06 335.49 L 961.11 331.23 L 962.12 326.92 L 963.08 322.58 L 963.99 318.20 L 964.86 313.78 L 965.67 309.32 L 966.44 304.84 L 967.15 300.32 L 967.82 295.78 L 968.44 291.20 L 969.00 286.61 L 969.52 281.99 L 969.99 277.35 L 970.41 272.69 L 970.79 268.01 L 971.11 263.33 L 971.38 258.62 L 971.60 253.91 L 971.78 249.19 L 971.90 244.46 L 971.98 239.73 L 972.00 235.00 Z" fill="none" stroke="#141210" stroke-width="74" stroke-linecap="round" stroke-linejoin="round"/>
<rect x="937.9" y="168.7" width="60.0" height="12.0" rx="1.4" fill="#cf4747"/><rect x="961.9" y="144.7" width="12.0" height="60.0" rx="1.4" fill="#cf4747"/>
</svg>